<svg xml:space="preserve" viewBox="459.137024 256.8192 362.496 362.496" version="1.1" xmlns:xlink="http://www.w3.org/1999/xlink" xmlns="http://www.w3.org/2000/svg" style="max-height: 500px" width="362.496" height="362.496">
<desc>Created with Fabric.js 5.3.0</desc>
<defs>
</defs>
<g id="background-logo" transform="matrix(1 0 0 1 640 512)">
<rect height="1024" width="1280" ry="0" rx="0" y="-512" x="-640" paint-order="stroke" style="stroke: none; stroke-width: 0; stroke-dasharray: none; stroke-linecap: butt; stroke-dashoffset: 0; stroke-linejoin: miter; stroke-miterlimit: 4; fill: rgb(255,255,255); fill-opacity: 0; fill-rule: nonzero; opacity: 1;"/>
</g>
<g id="logo-logo" transform="matrix(1.9211538461538462 0 0 1.9211538461538462 639.061090225564 435.76387698046244)">
<g paint-order="stroke" style="">
		<g transform="matrix(1.5646529522453974 0 0 -1.5646529522453971 -7.561967718202027 -7.415672667167087)">
<linearGradient y2="0" x2="1" y1="0" x1="0" gradientTransform="matrix(-83.875092 83.875092 83.875092 83.875092 270.92044 209.42044)" gradientUnits="userSpaceOnUse" id="SVGID_2_633280">
<stop style="stop-color:rgb(116,116,116);stop-opacity: 1" offset="0%"/>
<stop style="stop-color:rgb(169,169,169);stop-opacity: 1" offset="100%"/>
</linearGradient>
<path stroke-linecap="round" d="M 187.152 293.189 L 273.152 293.189 L 273.152 207.18900000000002 L 187.152 207.18900000000002 z" transform="translate(-230.152, -250.18900000000002)" paint-order="stroke" style="stroke: none; stroke-width: 1; stroke-dasharray: none; stroke-linecap: butt; stroke-dashoffset: 0; stroke-linejoin: miter; stroke-miterlimit: 4; fill: url(#SVGID_2_633280); fill-rule: nonzero; opacity: 1;"/>
</g>
		<g transform="matrix(1.5646529522453974 0 0 -1.5646529522453971 7.9539132827395065 7.953913282739421)">
<linearGradient y2="0" x2="1" y1="0" x1="0" gradientTransform="matrix(-179.7113 179.7113 179.7113 179.7113 293.62357 187.62357)" gradientUnits="userSpaceOnUse" id="SVGID_3_633281">
<stop style="stop-color:rgb(116,116,116);stop-opacity: 1" offset="0%"/>
<stop style="stop-color:rgb(169,169,169);stop-opacity: 1" offset="100%"/>
</linearGradient>
<path stroke-linecap="round" d="M 277.652 293.189 L 277.652 205.18900000000002 L 292.985 191.48100000000002 L 292.985 279.481 z M 205.318 187.543 L 292.318 187.543 L 274.152 202.877 L 187.152 202.877 z" transform="translate(-240.0685, -240.366)" paint-order="stroke" style="stroke: none; stroke-width: 1; stroke-dasharray: none; stroke-linecap: butt; stroke-dashoffset: 0; stroke-linejoin: miter; stroke-miterlimit: 4; fill: url(#SVGID_3_633281); fill-rule: nonzero; opacity: 1;"/>
</g>
		<g transform="matrix(1.5646529522453974 0 0 -1.5646529522453971 -15.515881000941533 -15.36958594990648)">
<linearGradient y2="0" x2="1" y1="0" x1="0" gradientTransform="matrix(-61.543175 61.543175 61.543175 61.543175 216.92044 263.42044)" gradientUnits="userSpaceOnUse" id="SVGID_4_633282">
<stop style="stop-color:rgb(116,116,116);stop-opacity: 1" offset="0%"/>
<stop style="stop-color:rgb(169,169,169);stop-opacity: 1" offset="100%"/>
</linearGradient>
<path stroke-linecap="round" d="M 182.527 297.814 L 273.152 297.814 L 273.152 303.356 L 176.98499999999999 303.356 L 176.98499999999999 207.189 L 182.527 207.189 z" transform="translate(-225.06849999999997, -255.27249999999998)" paint-order="stroke" style="stroke: none; stroke-width: 1; stroke-dasharray: none; stroke-linecap: butt; stroke-dashoffset: 0; stroke-linejoin: miter; stroke-miterlimit: 4; fill: url(#SVGID_4_633282); fill-rule: nonzero; opacity: 1;"/>
</g>
</g>
</g>
<g id="text-logo" transform="matrix(1.9211538461538462 0 0 1.9211538461538462 638.9357349371026 731.5646192247584)">
<g paint-order="stroke" style="">
		<g id="text-logo-path-0" transform="matrix(1 0 0 1 0 -19.15160000000003)">
<path stroke-linecap="round" d="M 4.55 0 L 1.31 0 Q 1.16 0 1.16 -0.15 L 1.16 -0.15 L 1.22 -20.07 Q 1.22 -20.18 1.33 -20.18 L 1.33 -20.18 L 6.9 -20.18 Q 9.57 -20.18 11.12 -18.56 Q 12.67 -16.94 12.67 -14.15 L 12.67 -14.15 Q 12.67 -12.09 11.86 -10.59 Q 11.05 -9.08 9.74 -8.27 Q 8.44 -7.45 6.9 -7.45 L 6.9 -7.45 L 4.7 -7.45 L 4.7 -0.15 Q 4.7 0 4.55 0 L 4.55 0 Z M 4.7 -16.7 L 4.7 -10.96 L 6.9 -10.96 Q 7.83 -10.96 8.51 -11.85 Q 9.19 -12.73 9.19 -14.15 L 9.19 -14.15 Q 9.19 -15.28 8.58 -16.01 Q 7.98 -16.73 6.9 -16.73 L 6.9 -16.73 L 4.7 -16.7 Z M 22.56 0 L 19.29 0 Q 19.17 0 19.17 -0.15 L 19.17 -0.15 L 19.23 -20.07 Q 19.23 -20.18 19.34 -20.18 L 19.34 -20.18 L 25.2 -20.18 Q 26.77 -20.18 28.09 -19.42 Q 29.41 -18.65 30.19 -17.36 Q 30.97 -16.07 30.97 -14.44 L 30.97 -14.44 Q 30.97 -13.37 30.65 -12.51 Q 30.33 -11.66 29.9 -11.06 Q 29.46 -10.47 29.12 -10.18 L 29.12 -10.18 Q 30.68 -8.44 30.68 -6.09 L 30.68 -6.09 L 30.71 -0.15 Q 30.71 0 30.57 0 L 30.57 0 L 27.29 0 Q 27.17 0 27.17 -0.09 L 27.17 -0.09 L 27.17 -6.09 Q 27.17 -7.13 26.43 -7.9 Q 25.69 -8.67 24.62 -8.67 L 24.62 -8.67 L 22.71 -8.67 L 22.68 -0.15 Q 22.68 0 22.56 0 L 22.56 0 Z M 22.71 -16.7 L 22.71 -12.15 L 25.2 -12.15 Q 26.1 -12.15 26.8 -12.82 Q 27.49 -13.49 27.49 -14.44 L 27.49 -14.44 Q 27.49 -15.37 26.81 -16.04 Q 26.13 -16.7 25.2 -16.7 L 25.2 -16.7 L 22.71 -16.7 Z M 36.92 -0.15 L 36.92 -0.15 L 40.51 -20.07 Q 40.54 -20.18 40.66 -20.18 L 40.66 -20.18 L 44.86 -20.18 Q 44.98 -20.18 45.01 -20.07 L 45.01 -20.07 L 48.46 -0.15 Q 48.49 0 48.34 0 L 48.34 0 L 45.12 0 Q 45.01 0 44.98 -0.15 L 44.98 -0.15 L 44.66 -2.26 L 40.72 -2.26 L 40.4 -0.15 Q 40.37 0 40.25 0 L 40.25 0 L 37.03 0 Q 36.92 0 36.92 -0.15 Z M 42.6 -13.51 L 41.3 -5.37 L 44.08 -5.37 L 42.89 -13.51 L 42.72 -14.59 L 42.6 -13.51 Z M 58.2 0 L 55.3 0 Q 55.07 0 55.07 -0.2 L 55.07 -0.2 L 55.04 -19.95 Q 55.04 -20.18 55.27 -20.18 L 55.27 -20.18 L 57.88 -20.18 L 62.79 -8.76 L 62.64 -19.95 Q 62.64 -20.18 62.9 -20.18 L 62.9 -20.18 L 65.77 -20.18 Q 65.95 -20.18 65.95 -19.95 L 65.95 -19.95 L 65.98 -0.17 Q 65.98 0 65.83 0 L 65.83 0 L 63.28 0 L 58.26 -10.67 L 58.46 -0.23 Q 58.46 0 58.2 0 L 58.2 0 Z M 82.74 0 L 73.37 0 Q 73.25 0 73.25 -0.15 L 73.25 -0.15 L 73.28 -20.07 Q 73.28 -20.18 73.4 -20.18 L 73.4 -20.18 L 82.71 -20.18 Q 82.82 -20.18 82.82 -20.04 L 82.82 -20.04 L 82.82 -16.79 Q 82.82 -16.68 82.71 -16.68 L 82.71 -16.68 L 76.76 -16.68 L 76.76 -12.15 L 82.71 -12.15 Q 82.82 -12.15 82.82 -12.04 L 82.82 -12.04 L 82.85 -8.76 Q 82.85 -8.64 82.74 -8.64 L 82.74 -8.64 L 76.76 -8.64 L 76.76 -3.57 L 82.74 -3.57 Q 82.85 -3.57 82.85 -3.42 L 82.85 -3.42 L 82.85 -0.12 Q 82.85 0 82.74 0 L 82.74 0 Z M 99.67 0 L 90.31 0 Q 90.19 0 90.19 -0.15 L 90.19 -0.15 L 90.22 -20.07 Q 90.22 -20.18 90.34 -20.18 L 90.34 -20.18 L 99.64 -20.18 Q 99.76 -20.18 99.76 -20.04 L 99.76 -20.04 L 99.76 -16.79 Q 99.76 -16.68 99.64 -16.68 L 99.64 -16.68 L 93.7 -16.68 L 93.7 -12.15 L 99.64 -12.15 Q 99.76 -12.15 99.76 -12.04 L 99.76 -12.04 L 99.79 -8.76 Q 99.79 -8.64 99.67 -8.64 L 99.67 -8.64 L 93.7 -8.64 L 93.7 -3.57 L 99.67 -3.57 Q 99.79 -3.57 99.79 -3.42 L 99.79 -3.42 L 99.79 -0.12 Q 99.79 0 99.67 0 L 99.67 0 Z M 113.3 0 L 110.03 0 Q 109.91 0 109.91 -0.15 L 109.91 -0.15 L 109.91 -16.68 L 106.14 -16.68 Q 106 -16.68 106 -16.82 L 106 -16.82 L 106.02 -20.07 Q 106.02 -20.18 106.14 -20.18 L 106.14 -20.18 L 117.16 -20.18 Q 117.31 -20.18 117.31 -20.07 L 117.31 -20.07 L 117.31 -16.82 Q 117.31 -16.68 117.19 -16.68 L 117.19 -16.68 L 113.39 -16.68 L 113.42 -0.15 Q 113.42 0 113.3 0 L 113.3 0 Z M 126.88 0 L 123.6 0 Q 123.48 0 123.48 -0.15 L 123.48 -0.15 L 123.51 -20.07 Q 123.51 -20.18 123.66 -20.18 L 123.66 -20.18 L 126.88 -20.18 Q 127.02 -20.18 127.02 -20.07 L 127.02 -20.07 L 126.99 -12.18 L 131.34 -12.18 L 131.34 -20.07 Q 131.34 -20.18 131.46 -20.18 L 131.46 -20.18 L 134.68 -20.18 Q 134.82 -20.18 134.82 -20.07 L 134.82 -20.07 L 134.88 -0.15 Q 134.88 0 134.73 0 L 134.73 0 L 131.49 0 Q 131.34 0 131.34 -0.15 L 131.34 -0.15 L 131.34 -8.67 L 126.99 -8.67 L 126.99 -0.15 Q 126.99 0 126.88 0 L 126.88 0 Z" transform="translate(-68.02, 10.09)" paint-order="stroke" style="stroke: rgb(255,255,255); stroke-width: 0; stroke-dasharray: none; stroke-linecap: butt; stroke-dashoffset: 0; stroke-linejoin: miter; stroke-miterlimit: 4; fill: rgb(155,155,155); fill-rule: nonzero; opacity: 1;"/>
</g>
		<g id="text-logo-path-1" transform="matrix(1 0 0 1 0.32141665744779857 19.00659999999999)">
<path stroke-linecap="round" d="M 4.55 0 L 1.28 0 Q 1.16 0 1.16 -0.15 L 1.16 -0.15 L 1.22 -20.07 Q 1.22 -20.18 1.33 -20.18 L 1.33 -20.18 L 4.87 -20.18 Q 4.99 -20.18 5.08 -20.07 L 5.08 -20.07 L 7.71 -16.24 L 10.35 -20.07 Q 10.44 -20.18 10.56 -20.18 L 10.56 -20.18 L 14.12 -20.18 Q 14.24 -20.18 14.24 -20.07 L 14.24 -20.07 L 14.3 -0.15 Q 14.3 0 14.18 0 L 14.18 0 L 10.9 0 Q 10.79 0 10.79 -0.15 L 10.79 -0.15 L 10.76 -14.94 L 7.71 -10.53 L 4.7 -14.94 L 4.67 -0.15 Q 4.67 0 4.55 0 L 4.55 0 Z M 26.83 0.29 L 26.83 0.29 Q 25.29 0.29 23.98 -0.51 Q 22.68 -1.31 21.91 -2.64 Q 21.14 -3.97 21.14 -5.57 L 21.14 -5.57 L 21.2 -20.07 Q 21.2 -20.18 21.32 -20.18 L 21.32 -20.18 L 24.56 -20.18 Q 24.68 -20.18 24.68 -20.07 L 24.68 -20.07 L 24.68 -5.57 Q 24.68 -4.58 25.3 -3.9 Q 25.93 -3.22 26.83 -3.22 L 26.83 -3.22 Q 27.75 -3.22 28.38 -3.9 Q 29 -4.58 29 -5.57 L 29 -5.57 L 29 -20.07 Q 29 -20.18 29.12 -20.18 L 29.12 -20.18 L 32.36 -20.18 Q 32.48 -20.18 32.48 -20.07 L 32.48 -20.07 L 32.54 -5.57 Q 32.54 -3.94 31.77 -2.61 Q 31 -1.28 29.71 -0.49 Q 28.42 0.29 26.83 0.29 Z M 46.34 0 L 42.83 0 Q 42.72 0 42.69 -0.15 L 42.69 -0.15 L 38.69 -20.07 Q 38.66 -20.18 38.8 -20.18 L 38.8 -20.18 L 42.08 -20.18 Q 42.2 -20.18 42.22 -20.07 L 42.22 -20.07 L 44.6 -6.79 L 46.92 -20.07 Q 46.95 -20.18 47.07 -20.18 L 47.07 -20.18 L 50.31 -20.18 Q 50.46 -20.18 50.43 -20.07 L 50.43 -20.07 L 46.49 -0.15 Q 46.46 0 46.34 0 L 46.34 0 Z M 63.37 0 L 59.86 0 Q 59.74 0 59.71 -0.15 L 59.71 -0.15 L 55.71 -20.07 Q 55.68 -20.18 55.83 -20.18 L 55.83 -20.18 L 59.1 -20.18 Q 59.22 -20.18 59.25 -20.07 L 59.25 -20.07 L 61.63 -6.79 L 63.95 -20.07 Q 63.97 -20.18 64.09 -20.18 L 64.09 -20.18 L 67.34 -20.18 Q 67.48 -20.18 67.45 -20.07 L 67.45 -20.07 L 63.51 -0.15 Q 63.48 0 63.37 0 L 63.37 0 Z M 71.72 -0.15 L 71.72 -0.15 L 75.31 -20.07 Q 75.34 -20.18 75.46 -20.18 L 75.46 -20.18 L 79.66 -20.18 Q 79.78 -20.18 79.81 -20.07 L 79.81 -20.07 L 83.26 -0.15 Q 83.29 0 83.14 0 L 83.14 0 L 79.92 0 Q 79.81 0 79.78 -0.15 L 79.78 -0.15 L 79.46 -2.26 L 75.52 -2.26 L 75.2 -0.15 Q 75.17 0 75.05 0 L 75.05 0 L 71.83 0 Q 71.72 0 71.72 -0.15 Z M 77.4 -13.51 L 76.1 -5.37 L 78.88 -5.37 L 77.69 -13.51 L 77.52 -14.59 L 77.4 -13.51 Z" transform="translate(-42.217838137289064, 9.945)" paint-order="stroke" style="stroke: rgb(255,255,255); stroke-width: 0; stroke-dasharray: none; stroke-linecap: butt; stroke-dashoffset: 0; stroke-linejoin: miter; stroke-miterlimit: 4; fill: rgb(155,155,155); fill-rule: nonzero; opacity: 1;"/>
</g>
</g>
</g>
<g id="tagline-3df94406-fc65-4215-83c2-5771e55d0697-logo" transform="matrix(1.9211538461538462 0 0 1.9211538461538462 638.5039556101794 418.78870713750365)">
<g paint-order="stroke" style="">
		<g id="tagline-3df94406-fc65-4215-83c2-5771e55d0697-logo-path-0" transform="matrix(1 0 0 1 0 0)">
<path stroke-linecap="round" d="M 18.21 0 L 5.22 0 Q 4.64 0 4.64 -0.58 L 4.64 -0.58 L 4.87 -80.27 Q 4.87 -80.74 5.34 -80.74 L 5.34 -80.74 L 27.61 -80.74 Q 38.28 -80.74 44.49 -74.24 Q 50.69 -67.74 50.69 -56.61 L 50.69 -56.61 Q 50.69 -48.37 47.44 -42.34 Q 44.2 -36.31 38.98 -33.06 Q 33.76 -29.81 27.61 -29.81 L 27.61 -29.81 L 18.79 -29.81 L 18.79 -0.58 Q 18.79 0 18.21 0 L 18.21 0 Z M 18.79 -66.82 L 18.79 -43.85 L 27.61 -43.85 Q 31.32 -43.85 34.05 -47.39 Q 36.77 -50.92 36.77 -56.61 L 36.77 -56.61 Q 36.77 -61.13 34.34 -64.03 Q 31.9 -66.93 27.61 -66.93 L 27.61 -66.93 L 18.79 -66.82 Z M 71.22 0 L 58.12 0 Q 57.65 0 57.65 -0.58 L 57.65 -0.58 L 57.88 -80.27 Q 57.88 -80.74 58.35 -80.74 L 58.35 -80.74 L 72.5 -80.74 Q 72.96 -80.74 73.31 -80.27 L 73.31 -80.27 L 83.87 -64.96 L 94.42 -80.27 Q 94.77 -80.74 95.24 -80.74 L 95.24 -80.74 L 109.5 -80.74 Q 109.97 -80.74 109.97 -80.27 L 109.97 -80.27 L 110.2 -0.58 Q 110.2 0 109.74 0 L 109.74 0 L 96.63 0 Q 96.16 0 96.16 -0.58 L 96.16 -0.58 L 96.05 -59.74 L 83.87 -42.11 L 71.8 -59.74 L 71.69 -0.58 Q 71.69 0 71.22 0 L 71.22 0 Z" transform="translate(-57.42, 40.37)" paint-order="stroke" style="stroke: none; stroke-width: 0; stroke-dasharray: none; stroke-linecap: butt; stroke-dashoffset: 0; stroke-linejoin: miter; stroke-miterlimit: 4; fill: rgb(61,61,61); fill-rule: nonzero; opacity: 1;"/>
</g>
</g>
</g>
</svg>